HIERARCHY
ROOT root
{
	OFFSET 0.000000 0.000000 0.000000
	CHANNELS 6 Xposition Yposition Zposition Zrotation Yrotation Xrotation
	JOINT lhip
	{
		OFFSET 0.058581 -0.082280 -0.017664
		CHANNELS 3 Zrotation Yrotation Xrotation
		JOINT lknee
		{
			OFFSET 0.043451 -0.386469 0.008037
			CHANNELS 3 Zrotation Yrotation Xrotation
			JOINT lankle
			{
				OFFSET -0.014790 -0.426874 -0.037428
				CHANNELS 3 Zrotation Yrotation Xrotation
				JOINT ltoe
				{
					OFFSET 0.041054 -0.060286 0.122042
					CHANNELS 3 Zrotation Yrotation Xrotation
					End Site
					{
						OFFSET 0.000000 0.000000 0.000000
					}
				}
			}
		}
	}
	JOINT rhip
	{
		OFFSET -0.060310 -0.090513 -0.013543
		CHANNELS 3 Zrotation Yrotation Xrotation
		JOINT rknee
		{
			OFFSET -0.043257 -0.383688 -0.004843
			CHANNELS 3 Zrotation Yrotation Xrotation
			JOINT rankle
			{
				OFFSET 0.019056 -0.420046 -0.034562
				CHANNELS 3 Zrotation Yrotation Xrotation
				JOINT rtoe
				{
					OFFSET -0.034840 -0.062106 0.130323
					CHANNELS 3 Zrotation Yrotation Xrotation
					End Site
					{
						OFFSET 0.000000 0.000000 0.000000
					}
				}
			}
		}
	}
	JOINT lowerback
	{
		OFFSET 0.004439 0.124404 -0.038385
		CHANNELS 3 Zrotation Yrotation Xrotation
		JOINT upperback
		{
			OFFSET 0.004488 0.137956 0.026820
			CHANNELS 3 Zrotation Yrotation Xrotation
			JOINT chest
			{
				OFFSET -0.002265 0.056032 0.002855
				CHANNELS 3 Zrotation Yrotation Xrotation
				JOINT lowerneck
				{
					OFFSET -0.013390 0.211636 -0.033468
					CHANNELS 3 Zrotation Yrotation Xrotation
					JOINT upperneck
					{
						OFFSET 0.010113 0.088937 0.050410
						CHANNELS 3 Zrotation Yrotation Xrotation
						End Site
						{
							OFFSET 0.000000 0.000000 0.000000
						}
					}
				}
				JOINT lclavicle
				{
					OFFSET 0.071702 0.114000 -0.018898
					CHANNELS 3 Zrotation Yrotation Xrotation
					JOINT lshoulder
					{
						OFFSET 0.122921 0.045205 -0.019046
						CHANNELS 3 Zrotation Yrotation Xrotation
						JOINT lelbow
						{
							OFFSET 0.255332 -0.015649 -0.022946
							CHANNELS 3 Zrotation Yrotation Xrotation
							JOINT lwrist
							{
								OFFSET 0.265709 0.012698 -0.007375
								CHANNELS 3 Zrotation Yrotation Xrotation
								End Site
								{
									OFFSET 0.000000 0.000000 0.000000
								}
							}
						}
					}
				}
				JOINT rclavicle
				{
					OFFSET -0.082954 0.112472 -0.023707
					CHANNELS 3 Zrotation Yrotation Xrotation
					JOINT rshoulder
					{
						OFFSET -0.113228 0.046853 -0.008472
						CHANNELS 3 Zrotation Yrotation Xrotation
						JOINT relbow
						{
							OFFSET -0.260127 -0.014369 -0.031269
							CHANNELS 3 Zrotation Yrotation Xrotation
							JOINT rwrist
							{
								OFFSET -0.269108 0.006794 -0.006027
								CHANNELS 3 Zrotation Yrotation Xrotation
								End Site
								{
									OFFSET 0.000000 0.000000 0.000000
								}
							}
						}
					}
				}
			}
		}
	}
}
MOTION
Frames: 10
Frame Time: 0.033333
-0.217045 2.894125 0.816205 -174.466571 -0.136320 96.704081 7.799436 -0.891430 -46.343527 -3.635336 10.411303 64.631534 7.191109 14.912698 -34.918338 0.000000 -0.000000 0.000000 -4.250584 -1.401736 -48.532469 -3.564267 -10.695730 73.378353 0.537611 -12.339659 -38.851274 0.000000 -0.000000 0.000000 -0.202215 -0.536820 45.012229 2.244975 -1.810199 -7.282358 2.023852 -1.937632 2.680562 0.400006 5.110801 -17.300832 2.185376 -0.820696 -7.009322 -27.651473 -11.430197 3.261587 -48.063978 -8.212464 8.327993 13.421586 -47.043502 -4.093368 6.273599 0.756076 -14.475841 25.685741 14.835013 2.564230 47.349028 10.363329 11.462441 -20.029112 42.720923 -12.244314 3.567594 5.237838 -11.437884 
-0.216851 2.893012 0.816321 -174.258387 -0.057214 96.928683 8.032616 -1.140516 -46.699273 -3.709372 10.525561 64.595200 7.124387 14.923327 -34.837544 0.000000 -0.000000 0.000000 -4.305611 -1.388896 -48.823930 -3.641803 -10.958109 73.390595 0.562332 -12.332933 -38.785133 0.000000 -0.000000 0.000000 -0.109309 -0.621690 44.858298 2.403450 -1.866231 -7.338089 1.972480 -1.923632 2.772520 0.378859 5.149732 -17.400607 2.149917 -0.902224 -6.971027 -27.655766 -11.304031 3.296003 -48.069251 -8.474780 8.484284 13.311088 -46.767583 -3.934394 6.453722 0.047064 -14.856663 25.709025 14.677808 2.505194 47.329358 10.423952 11.591079 -19.986057 42.607861 -11.948428 3.452548 5.400563 -11.819476 
-0.216896 2.892258 0.816651 -174.201717 -0.076837 96.991845 8.034784 -1.250206 -46.799651 -3.651945 10.578610 64.536425 7.091499 14.864304 -34.788962 0.000000 -0.000000 0.000000 -4.373021 -1.375126 -48.925531 -3.706139 -11.030677 73.376038 0.598456 -12.297618 -38.744911 0.000000 -0.000000 0.000000 -0.083232 -0.642852 44.930534 2.426397 -1.880320 -7.405970 1.964744 -1.919329 2.781118 0.321719 5.139010 -17.431626 2.138803 -0.962743 -6.992609 -27.713508 -11.291771 3.309281 -48.001080 -8.627912 8.512092 13.135819 -46.528113 -3.876230 6.592992 -0.644878 -15.023364 25.790244 14.614439 2.507470 47.232538 10.396271 11.598888 -19.901132 42.530957 -11.907684 3.352365 5.548097 -11.843767 
-0.216973 2.891359 0.817013 -174.210856 -0.089195 97.035860 8.028895 -1.299758 -46.875715 -3.616392 10.611991 64.453925 7.035453 14.812860 -34.744340 0.000000 -0.000000 0.000000 -4.400524 -1.320702 -49.021671 -3.775741 -11.046149 73.332141 0.652586 -12.268770 -38.693545 0.000000 -0.000000 0.000000 -0.058975 -0.641742 45.047401 2.407611 -1.845270 -7.508139 1.967292 -1.889378 2.793968 0.249880 5.132711 -17.442396 2.148338 -1.000306 -6.932896 -27.775034 -11.306119 3.319848 -47.951057 -8.838346 8.527374 12.963581 -46.236014 -3.844623 6.749556 -1.508419 -15.207709 25.862064 14.580850 2.525863 47.088087 10.339409 11.575227 -19.738014 42.412629 -11.836828 3.257536 5.753397 -11.838355 
-0.216987 2.890837 0.817217 -174.226310 -0.088824 97.064441 8.041774 -1.321317 -46.920961 -3.602979 10.642922 64.405937 7.005942 14.787108 -34.717947 0.000000 -0.000000 0.000000 -4.410116 -1.287035 -49.082158 -3.805636 -11.054850 73.300791 0.678948 -12.239241 -38.652587 0.000000 -0.000000 0.000000 -0.066211 -0.632699 45.093145 2.402880 -1.817526 -7.552270 1.976828 -1.867668 2.802471 0.241382 5.153421 -17.450371 2.167766 -1.018657 -6.877826 -27.803881 -11.290233 3.318487 -47.936407 -8.977627 8.544158 12.881473 -46.095881 -3.838936 6.883561 -2.018353 -15.331863 25.895530 14.568908 2.533250 46.991949 10.348275 11.573458 -19.558807 42.265961 -11.744114 3.138544 5.874999 -11.858776 
-0.216964 2.890180 0.817525 -174.231802 -0.112871 97.092251 8.036936 -1.380439 -46.958609 -3.567884 10.688552 64.319833 6.967470 14.744604 -34.672584 0.000000 -0.000000 0.000000 -4.451405 -1.281315 -49.138150 -3.834243 -11.071513 73.252991 0.719046 -12.171375 -38.601977 0.000000 -0.000000 0.000000 -0.080564 -0.605286 45.144552 2.397771 -1.805894 -7.590913 1.979802 -1.863603 2.822832 0.270627 5.177383 -17.475335 2.203813 -1.054378 -6.841515 -27.826784 -11.265050 3.310863 -47.889541 -9.145442 8.564275 12.764410 -45.962183 -3.804939 6.989855 -2.717014 -15.484084 25.922828 14.554276 2.526683 46.920423 10.402126 11.573116 -19.369042 42.021485 -11.635295 3.080966 5.995946 -11.795621 
-0.216976 2.889683 0.817881 -174.196557 -0.139402 97.071338 7.988742 -1.458949 -46.945417 -3.525059 10.675346 64.236023 6.932091 14.709723 -34.630321 0.000000 -0.000000 0.000000 -4.523071 -1.274499 -49.106140 -3.870220 -11.134694 73.189438 0.751512 -12.125897 -38.559610 0.000000 -0.000000 0.000000 -0.067237 -0.624378 45.221353 2.393431 -1.818718 -7.628947 1.967653 -1.869051 2.851468 0.282387 5.177702 -17.479468 2.231170 -1.091888 -6.816183 -27.849490 -11.259053 3.317199 -47.809374 -9.282322 8.580233 12.614685 -45.844724 -3.724469 7.084946 -3.408551 -15.643481 25.941195 14.549471 2.508442 46.887220 10.465611 11.559446 -19.218703 41.790745 -11.589686 2.994564 6.122665 -11.734689 
-0.216994 2.889318 0.818288 -174.135107 -0.146305 97.028562 7.951578 -1.537808 -46.907780 -3.491773 10.641329 64.150967 6.888928 14.665486 -34.576136 0.000000 -0.000000 0.000000 -4.611360 -1.202809 -49.014251 -3.913568 -11.243403 73.091093 0.785679 -12.132888 -38.506583 0.000000 -0.000000 0.000000 -0.030570 -0.690637 45.293314 2.398725 -1.828935 -7.660897 1.954815 -1.868172 2.887195 0.255313 5.173671 -17.484425 2.217871 -1.117175 -6.730188 -27.876194 -11.274573 3.337139 -47.734069 -9.431996 8.580010 12.446045 -45.645117 -3.635508 7.164818 -4.111025 -15.778487 25.983287 14.540097 2.510106 46.823792 10.523935 11.526062 -19.121516 41.629637 -11.581648 2.929219 6.269703 -11.686295 
-0.216978 2.888879 0.818667 -174.111932 -0.167313 97.066492 7.936421 -1.577500 -46.944766 -3.464444 10.668312 64.059737 6.864425 14.595623 -34.533362 0.000000 -0.000000 0.000000 -4.628482 -1.157883 -49.054198 -3.939292 -11.218572 73.020737 0.819701 -12.154958 -38.435795 0.000000 -0.000000 0.000000 -0.018005 -0.716031 45.249381 2.413964 -1.829451 -7.686475 1.944066 -1.876333 2.926399 0.230038 5.165976 -17.463041 2.196577 -1.133774 -6.676563 -27.878522 -11.243528 3.337310 -47.690015 -9.601313 8.583227 12.251451 -45.399653 -3.497363 7.221337 -4.790751 -15.909104 26.018865 14.471824 2.508143 46.764306 10.591561 11.523299 -19.016205 41.537172 -11.525127 2.907607 6.418491 -11.684781 
-0.217006 2.888392 0.819160 -174.102016 -0.232375 97.115304 7.884165 -1.602224 -46.969550 -3.470903 10.721833 63.930618 6.855931 14.520230 -34.494398 0.000000 -0.000000 0.000000 -4.686173 -1.140279 -49.129084 -3.928661 -11.172305 72.969577 0.875796 -12.181359 -38.347703 0.000000 -0.000000 0.000000 -0.023764 -0.747949 45.173652 2.412137 -1.839563 -7.695985 1.915038 -1.871231 2.964432 0.231797 5.136438 -17.460861 2.194145 -1.159811 -6.647428 -27.941578 -11.198478 3.349168 -47.540990 -9.757034 8.579679 12.004999 -45.208393 -3.396230 7.408596 -5.539211 -16.042653 26.088569 14.401343 2.537747 46.615085 10.629025 11.542904 -18.835609 41.539728 -11.432635 2.770439 6.610273 -11.642448 
